<?xml version="1.0" standalone="no"?>
<!DOCTYPE svg PUBLIC "-//W3C//DTD SVG 20010904//EN"
 "http://www.w3.org/TR/2001/REC-SVG-20010904/DTD/svg10.dtd">
<svg version="1.0" xmlns="http://www.w3.org/2000/svg"
 width="700.000000pt" height="700.000000pt" viewBox="0 0 700.000000 700.000000"
 preserveAspectRatio="xMidYMid meet">
<metadata>
Created by potrace 1.11, written by Peter Selinger 2001-2013
</metadata>
<g transform="translate(0.000000,700.000000) scale(0.100000,-0.100000)"
fill="#000000" stroke="none">
<path d="M3685 6856 c-171 -56 -255 -220 -194 -381 44 -117 3 -94 1188 -685
589 -294 1071 -537 1071 -540 0 -3 -179 -95 -398 -204 l-397 -198 -1418 708
-1418 709 -77 -1 c-62 0 -86 -5 -127 -26 -86 -45 -137 -111 -156 -206 -21
-100 16 -204 94 -271 16 -14 575 -299 1241 -632 l1211 -606 -403 -202 -402
-201 -1331 666 c-732 366 -1356 674 -1386 686 -66 24 -178 22 -230 -6 -50 -26
-101 -74 -131 -125 -24 -41 -27 -56 -27 -136 0 -103 19 -152 83 -212 26 -24
457 -245 1385 -709 l1347 -674 0 -1645 c0 -1613 0 -1647 20 -1703 15 -43 33
-70 73 -107 146 -138 364 -98 459 85 l23 45 3 1663 2 1662 1160 580 c638 319
1162 580 1165 580 2 0 6 -611 7 -1357 3 -1310 4 -1360 22 -1403 32 -74 80
-126 151 -161 61 -30 70 -31 139 -26 118 9 211 76 252 183 18 47 19 101 19
1524 l0 1475 -22 85 c-63 237 -214 438 -420 558 -87 51 -2346 1180 -2394 1197
-59 21 -140 26 -184 11z"/>
</g>
</svg>
